<svg width="1014" height="14" viewBox="0 0 1014 14" fill="none" xmlns="http://www.w3.org/2000/svg">
<path d="M1 7.17946C7.66667 0.0799908 14.3333 0.0799908 21 7.17946C27.6667 14.2789 34.3333 14.2789 41 7.17946C47.6667 0.0799908 54.3333 0.0799908 61 7.17946C67.6667 14.2789 74.3333 14.2789 81 7.17946C87.6667 0.0799908 94.3333 0.0799908 101 7.17946C107.667 14.2789 114.333 14.2789 121 7.17946C127.667 0.0799908 134.333 0.0799908 141 7.17946C147.667 14.2789 154.333 14.2789 161 7.17946C167.667 0.0799908 174.333 0.0799908 181 7.17946C187.667 14.2789 194.333 14.2789 201 7.17946C207.667 0.0799908 214.333 0.0799908 221 7.17946C227.667 14.2789 234.333 14.2789 241 7.17946C247.667 0.0799908 254.333 0.0799908 261 7.17946C267.667 14.2789 274.333 14.2789 281 7.17946C287.667 0.0799908 294.333 0.0799908 301 7.17946C307.667 14.2789 314.333 14.2789 321 7.17946C327.667 0.0799908 334.333 0.0799908 341 7.17946C347.667 14.2789 354.333 14.2789 361 7.17946C367.667 0.0799908 374.333 0.0799908 381 7.17946C387.667 14.2789 394.333 14.2789 401 7.17946C407.667 0.0799908 414.333 0.0799908 421 7.17946C427.667 14.2789 434.333 14.2789 441 7.17946C447.667 0.0799908 454.333 0.0799908 461 7.17946C467.667 14.2789 474.333 14.2789 481 7.17946" stroke="#928D8D" stroke-width="2" stroke-linecap="round"/>
<path d="M481 7.17946C487.667 0.0799908 494.333 0.0799908 501 7.17946C507.667 14.2789 514.333 14.2789 521 7.17946C527.667 0.0799908 534.333 0.0799908 541 7.17946C547.667 14.2789 554.333 14.2789 561 7.17946C567.667 0.0799908 574.333 0.0799908 581 7.17946C587.667 14.2789 594.333 14.2789 601 7.17946C607.667 0.0799908 614.333 0.0799908 621 7.17946C627.667 14.2789 634.333 14.2789 641 7.17946C647.667 0.0799908 654.333 0.0799908 661 7.17946C667.667 14.2789 674.333 14.2789 681 7.17946C687.667 0.0799908 694.333 0.0799908 701 7.17946C707.667 14.2789 714.333 14.2789 721 7.17946C727.667 0.0799908 734.333 0.0799908 741 7.17946C747.667 14.2789 754.333 14.2789 761 7.17946C767.667 0.0799908 774.333 0.0799908 781 7.17946C787.667 14.2789 794.333 14.2789 801 7.17946C807.667 0.0799908 814.333 0.0799908 821 7.17946C827.667 14.2789 834.333 14.2789 841 7.17946C847.667 0.0799908 854.333 0.0799908 861 7.17946C867.667 14.2789 874.333 14.2789 881 7.17946C887.667 0.0799908 894.333 0.0799908 901 7.17946C907.667 14.2789 914.333 14.2789 921 7.17946C927.667 0.0799908 934.333 0.0799908 941 7.17946C947.667 14.2789 954.333 14.2789 961 7.17946" stroke="#928D8D" stroke-width="2" stroke-linecap="round"/>
<path d="M961 7.17946C967.667 0.0799912 974.333 0.0799912 981 7.17946C987.667 14.2789 994.333 14.2789 1001 7.17946C1005 2.91978 1009 1.21591 1013 2.06784" stroke="#928D8D" stroke-width="2" stroke-linecap="round"/>
</svg>
